<svg xmlns="http://www.w3.org/2000/svg" xmlns:xlink="http://www.w3.org/1999/xlink" width="256" zoomAndPan="magnify" viewBox="0 0 375 374.999991" height="256" preserveAspectRatio="xMidYMid meet" version="1.0">
<defs><clipPath id="4463591850"><path d="M 137.007812 169.84375 L 250 169.84375 L 250 187.84375 L 137.007812 187.84375 Z M 137.007812 169.84375 " clip-rule="nonzero"/></clipPath></defs><path fill="#ffffff" d="M 229.660156 175.132812 C 229.167969 174.058594 221.820312 157.03125 216.128906 147.90625 C 208.332031 135.417969 200.308594 129.167969 187.5 129.167969 C 174.691406 129.167969 166.667969 135.417969 158.875 147.90625 C 153.179688 157.035156 145.832031 174.058594 145.339844 175.132812 C 141.667969 181.910156 139.582031 189.667969 139.582031 197.917969 C 139.582031 224.378906 161.035156 245.832031 187.5 245.832031 C 213.964844 245.832031 235.417969 224.378906 235.417969 197.917969 C 235.417969 189.667969 233.332031 181.910156 229.660156 175.132812 Z M 229.660156 175.132812 " fill-opacity="1" fill-rule="nonzero"/><path fill="#d0cfce" d="M 229.660156 175.132812 C 229.167969 174.058594 216.613281 148.777344 216.128906 147.90625 C 211.804688 141.320312 208.855469 137.5 202.277344 132.902344 C 206 145.457031 210.445312 160.503906 210.738281 161.542969 C 214.398438 172.960938 216.492188 185.976562 216.492188 199.789062 C 216.492188 214.539062 214.125 228.34375 210.003906 240.222656 C 225.121094 232.164062 235.417969 216.242188 235.417969 197.917969 C 235.417969 189.667969 233.332031 181.910156 229.660156 175.132812 Z M 229.660156 175.132812 " fill-opacity="1" fill-rule="nonzero"/><path stroke-linecap="round" transform="matrix(2.083333, 0, 0, 2.083333, 112.499997, 112.499993)" fill="none" stroke-linejoin="round" d="M 56.236882 30.063756 C 56.000632 29.548131 52.473756 21.375006 49.741881 16.995005 C 45.999381 11.00063 42.14813 8.000629 36.000005 8.000629 C 29.851879 8.000629 26.000629 11.00063 22.260004 16.995005 C 19.526253 21.376881 15.999378 29.548131 15.763128 30.063756 C 14.000628 33.316882 12.999378 37.040632 12.999378 41.000632 C 12.999378 53.701884 23.296879 63.999385 36.000005 63.999385 C 48.703131 63.999385 59.000632 53.701884 59.000632 41.000632 C 59.000632 37.040632 57.999382 33.316882 56.236882 30.063756 Z M 56.236882 30.063756 " stroke="#000000" stroke-width="2" stroke-opacity="1" stroke-miterlimit="10"/><path fill="#ffffff" d="M 217.238281 175.84375 L 217.238281 178.847656 L 220.191406 178.847656 L 220.191406 175.84375 Z M 214.289062 178.847656 L 214.289062 181.847656 L 217.238281 181.847656 L 217.238281 178.847656 Z M 211.335938 175.84375 L 211.335938 178.847656 L 214.289062 178.847656 L 214.289062 175.84375 Z M 211.335938 181.847656 L 211.335938 184.847656 L 214.289062 184.847656 L 214.289062 181.847656 Z M 208.386719 178.847656 L 208.386719 181.847656 L 211.335938 181.847656 L 211.335938 178.847656 Z M 205.4375 181.847656 L 205.4375 184.847656 L 208.386719 184.847656 L 208.386719 181.847656 Z M 170.023438 175.84375 L 170.023438 178.847656 L 172.972656 178.847656 L 172.972656 175.84375 Z M 167.070312 178.847656 L 167.070312 181.847656 L 170.023438 181.847656 L 170.023438 178.847656 Z M 164.121094 175.84375 L 164.121094 178.847656 L 167.070312 178.847656 L 167.070312 175.84375 Z M 164.121094 181.847656 L 164.121094 184.847656 L 167.070312 184.847656 L 167.070312 181.847656 Z M 161.167969 178.847656 L 161.167969 181.847656 L 164.121094 181.847656 L 164.121094 178.847656 Z M 161.167969 181.847656 L 161.167969 184.847656 L 158.21875 184.847656 L 158.21875 181.847656 L 161.167969 181.847656 " fill-opacity="1" fill-rule="nonzero"/><g clip-path="url(#4463591850)"><path fill="#000000" d="M 246.75 175.84375 L 246.75 178.847656 L 249.703125 178.847656 L 249.703125 175.84375 Z M 243.800781 172.84375 L 243.800781 175.84375 L 246.75 175.84375 L 246.75 172.84375 Z M 240.847656 169.84375 L 240.847656 172.84375 L 243.800781 172.84375 L 243.800781 169.84375 Z M 237.898438 169.84375 L 237.898438 172.84375 L 240.847656 172.84375 L 240.847656 169.84375 Z M 234.945312 169.84375 L 234.945312 172.84375 L 237.898438 172.84375 L 237.898438 169.84375 Z M 231.996094 169.84375 L 231.996094 172.84375 L 234.945312 172.84375 L 234.945312 169.84375 Z M 229.042969 169.84375 L 229.042969 172.84375 L 231.996094 172.84375 L 231.996094 169.84375 Z M 226.09375 169.84375 L 226.09375 172.84375 L 229.042969 172.84375 L 229.042969 169.84375 Z M 226.09375 172.84375 L 226.09375 175.84375 L 229.042969 175.84375 L 229.042969 172.84375 Z M 223.140625 169.84375 L 223.140625 172.84375 L 226.09375 172.84375 L 226.09375 169.84375 Z M 223.140625 172.84375 L 223.140625 175.84375 L 226.09375 175.84375 L 226.09375 172.84375 Z M 223.140625 175.84375 L 223.140625 178.847656 L 226.09375 178.847656 L 226.09375 175.84375 Z M 220.191406 169.84375 L 220.191406 172.84375 L 223.140625 172.84375 L 223.140625 169.84375 Z M 220.191406 172.84375 L 220.191406 175.84375 L 223.140625 175.84375 L 223.140625 172.84375 Z M 220.191406 175.84375 L 220.191406 178.847656 L 223.140625 178.847656 L 223.140625 175.84375 Z M 220.191406 178.847656 L 220.191406 181.847656 L 223.140625 181.847656 L 223.140625 178.847656 Z M 217.238281 169.84375 L 217.238281 172.84375 L 220.191406 172.84375 L 220.191406 169.84375 Z M 217.238281 172.84375 L 217.238281 175.84375 L 220.191406 175.84375 L 220.191406 172.84375 Z M 217.238281 178.847656 L 217.238281 181.847656 L 220.191406 181.847656 L 220.191406 178.847656 Z M 217.238281 181.847656 L 217.238281 184.847656 L 220.191406 184.847656 L 220.191406 181.847656 Z M 214.289062 169.84375 L 214.289062 172.84375 L 217.238281 172.84375 L 217.238281 169.84375 Z M 214.289062 172.84375 L 214.289062 175.84375 L 217.238281 175.84375 L 217.238281 172.84375 Z M 214.289062 175.84375 L 214.289062 178.847656 L 217.238281 178.847656 L 217.238281 175.84375 Z M 214.289062 181.847656 L 214.289062 184.847656 L 217.238281 184.847656 L 217.238281 181.847656 Z M 214.289062 184.847656 L 214.289062 187.847656 L 217.238281 187.847656 L 217.238281 184.847656 Z M 211.335938 169.84375 L 211.335938 172.84375 L 214.289062 172.84375 L 214.289062 169.84375 Z M 211.335938 172.84375 L 211.335938 175.84375 L 214.289062 175.84375 L 214.289062 172.84375 Z M 211.335938 178.847656 L 211.335938 181.847656 L 214.289062 181.847656 L 214.289062 178.847656 Z M 211.335938 184.847656 L 211.335938 187.847656 L 214.289062 187.847656 L 214.289062 184.847656 Z M 208.386719 169.84375 L 208.386719 172.84375 L 211.335938 172.84375 L 211.335938 169.84375 Z M 208.386719 172.84375 L 208.386719 175.84375 L 211.335938 175.84375 L 211.335938 172.84375 Z M 208.386719 175.84375 L 208.386719 178.847656 L 211.335938 178.847656 L 211.335938 175.84375 Z M 208.386719 181.847656 L 208.386719 184.847656 L 211.335938 184.847656 L 211.335938 181.847656 Z M 208.386719 184.847656 L 208.386719 187.847656 L 211.335938 187.847656 L 211.335938 184.847656 Z M 205.4375 169.84375 L 205.4375 172.84375 L 208.386719 172.84375 L 208.386719 169.84375 Z M 205.4375 172.84375 L 205.4375 175.84375 L 208.386719 175.84375 L 208.386719 172.84375 Z M 205.4375 175.84375 L 205.4375 178.847656 L 208.386719 178.847656 L 208.386719 175.84375 Z M 205.4375 178.847656 L 205.4375 181.847656 L 208.386719 181.847656 L 208.386719 178.847656 Z M 205.4375 184.847656 L 205.4375 187.847656 L 208.386719 187.847656 L 208.386719 184.847656 Z M 202.484375 169.84375 L 202.484375 172.84375 L 205.4375 172.84375 L 205.4375 169.84375 Z M 202.484375 172.84375 L 202.484375 175.84375 L 205.4375 175.84375 L 205.4375 172.84375 Z M 202.484375 175.84375 L 202.484375 178.847656 L 205.4375 178.847656 L 205.4375 175.84375 Z M 202.484375 178.847656 L 202.484375 181.847656 L 205.4375 181.847656 L 205.4375 178.847656 Z M 202.484375 181.847656 L 202.484375 184.847656 L 205.4375 184.847656 L 205.4375 181.847656 Z M 202.484375 184.847656 L 202.484375 187.847656 L 205.4375 187.847656 L 205.4375 184.847656 Z M 199.535156 169.84375 L 199.535156 172.84375 L 202.484375 172.84375 L 202.484375 169.84375 Z M 199.535156 172.84375 L 199.535156 175.84375 L 202.484375 175.84375 L 202.484375 172.84375 Z M 199.535156 175.84375 L 199.535156 178.847656 L 202.484375 178.847656 L 202.484375 175.84375 Z M 199.535156 178.847656 L 199.535156 181.847656 L 202.484375 181.847656 L 202.484375 178.847656 Z M 199.535156 181.847656 L 199.535156 184.847656 L 202.484375 184.847656 L 202.484375 181.847656 Z M 199.535156 184.847656 L 199.535156 187.847656 L 202.484375 187.847656 L 202.484375 184.847656 Z M 196.582031 169.84375 L 196.582031 172.84375 L 199.535156 172.84375 L 199.535156 169.84375 Z M 196.582031 172.84375 L 196.582031 175.84375 L 199.535156 175.84375 L 199.535156 172.84375 Z M 196.582031 175.84375 L 196.582031 178.847656 L 199.535156 178.847656 L 199.535156 175.84375 Z M 196.582031 178.847656 L 196.582031 181.847656 L 199.535156 181.847656 L 199.535156 178.847656 Z M 196.582031 181.847656 L 196.582031 184.847656 L 199.535156 184.847656 L 199.535156 181.847656 Z M 196.582031 184.847656 L 196.582031 187.847656 L 199.535156 187.847656 L 199.535156 184.847656 Z M 193.632812 169.84375 L 193.632812 172.84375 L 196.582031 172.84375 L 196.582031 169.84375 Z M 193.632812 172.84375 L 193.632812 175.84375 L 196.582031 175.84375 L 196.582031 172.84375 Z M 193.632812 175.84375 L 193.632812 178.847656 L 196.582031 178.847656 L 196.582031 175.84375 Z M 193.632812 178.847656 L 193.632812 181.847656 L 196.582031 181.847656 L 196.582031 178.847656 Z M 193.632812 181.847656 L 193.632812 184.847656 L 196.582031 184.847656 L 196.582031 181.847656 Z M 193.632812 184.847656 L 193.632812 187.847656 L 196.582031 187.847656 L 196.582031 184.847656 Z M 190.679688 169.84375 L 190.679688 172.84375 L 193.632812 172.84375 L 193.632812 169.84375 Z M 190.679688 172.84375 L 190.679688 175.84375 L 193.632812 175.84375 L 193.632812 172.84375 Z M 190.679688 175.84375 L 190.679688 178.847656 L 193.632812 178.847656 L 193.632812 175.84375 Z M 190.679688 178.847656 L 190.679688 181.847656 L 193.632812 181.847656 L 193.632812 178.847656 Z M 190.679688 181.847656 L 190.679688 184.847656 L 193.632812 184.847656 L 193.632812 181.847656 Z M 187.726562 169.84375 L 187.726562 172.84375 L 190.679688 172.84375 L 190.679688 169.84375 Z M 187.726562 172.84375 L 187.726562 175.84375 L 190.679688 175.84375 L 190.679688 172.84375 Z M 187.726562 175.84375 L 187.726562 178.847656 L 190.679688 178.847656 L 190.679688 175.84375 Z M 187.726562 178.847656 L 187.726562 181.847656 L 190.679688 181.847656 L 190.679688 178.847656 Z M 184.777344 169.84375 L 184.777344 172.84375 L 187.726562 172.84375 L 187.726562 169.84375 Z M 184.777344 172.84375 L 184.777344 175.84375 L 187.726562 175.84375 L 187.726562 172.84375 Z M 184.777344 175.84375 L 184.777344 178.847656 L 187.726562 178.847656 L 187.726562 175.84375 Z M 181.828125 169.84375 L 181.828125 172.84375 L 184.777344 172.84375 L 184.777344 169.84375 Z M 181.828125 172.84375 L 181.828125 175.84375 L 184.777344 175.84375 L 184.777344 172.84375 Z M 178.875 169.84375 L 178.875 172.84375 L 181.828125 172.84375 L 181.828125 169.84375 Z M 178.875 172.84375 L 178.875 175.84375 L 181.828125 175.84375 L 181.828125 172.84375 Z M 175.925781 169.84375 L 175.925781 172.84375 L 178.875 172.84375 L 178.875 169.84375 Z M 175.925781 172.84375 L 175.925781 175.84375 L 178.875 175.84375 L 178.875 172.84375 Z M 175.925781 175.84375 L 175.925781 178.847656 L 178.875 178.847656 L 178.875 175.84375 Z M 172.972656 169.84375 L 172.972656 172.84375 L 175.925781 172.84375 L 175.925781 169.84375 Z M 172.972656 172.84375 L 172.972656 175.84375 L 175.925781 175.84375 L 175.925781 172.84375 Z M 172.972656 175.84375 L 172.972656 178.847656 L 175.925781 178.847656 L 175.925781 175.84375 Z M 172.972656 178.847656 L 172.972656 181.847656 L 175.925781 181.847656 L 175.925781 178.847656 Z M 170.023438 169.84375 L 170.023438 172.84375 L 172.972656 172.84375 L 172.972656 169.84375 Z M 170.023438 172.84375 L 170.023438 175.84375 L 172.972656 175.84375 L 172.972656 172.84375 Z M 170.023438 178.847656 L 170.023438 181.847656 L 172.972656 181.847656 L 172.972656 178.847656 Z M 170.023438 181.847656 L 170.023438 184.847656 L 172.972656 184.847656 L 172.972656 181.847656 Z M 167.070312 169.84375 L 167.070312 172.84375 L 170.023438 172.84375 L 170.023438 169.84375 Z M 167.070312 172.84375 L 167.070312 175.84375 L 170.023438 175.84375 L 170.023438 172.84375 Z M 167.070312 175.84375 L 167.070312 178.847656 L 170.023438 178.847656 L 170.023438 175.84375 Z M 167.070312 181.847656 L 167.070312 184.847656 L 170.023438 184.847656 L 170.023438 181.847656 Z M 167.070312 184.847656 L 167.070312 187.847656 L 170.023438 187.847656 L 170.023438 184.847656 Z M 164.121094 169.84375 L 164.121094 172.84375 L 167.070312 172.84375 L 167.070312 169.84375 Z M 164.121094 172.84375 L 164.121094 175.84375 L 167.070312 175.84375 L 167.070312 172.84375 Z M 164.121094 178.847656 L 164.121094 181.847656 L 167.070312 181.847656 L 167.070312 178.847656 Z M 164.121094 184.847656 L 164.121094 187.847656 L 167.070312 187.847656 L 167.070312 184.847656 Z M 161.167969 169.84375 L 161.167969 172.84375 L 164.121094 172.84375 L 164.121094 169.84375 Z M 161.167969 172.84375 L 161.167969 175.84375 L 164.121094 175.84375 L 164.121094 172.84375 Z M 161.167969 175.84375 L 161.167969 178.847656 L 164.121094 178.847656 L 164.121094 175.84375 Z M 161.167969 181.847656 L 161.167969 184.847656 L 164.121094 184.847656 L 164.121094 181.847656 Z M 161.167969 184.847656 L 161.167969 187.847656 L 164.121094 187.847656 L 164.121094 184.847656 Z M 158.21875 169.84375 L 158.21875 172.84375 L 161.167969 172.84375 L 161.167969 169.84375 Z M 158.21875 172.84375 L 158.21875 175.84375 L 161.167969 175.84375 L 161.167969 172.84375 Z M 158.21875 175.84375 L 158.21875 178.847656 L 161.167969 178.847656 L 161.167969 175.84375 Z M 158.21875 178.847656 L 158.21875 181.847656 L 161.167969 181.847656 L 161.167969 178.847656 Z M 158.21875 184.847656 L 158.21875 187.847656 L 161.167969 187.847656 L 161.167969 184.847656 Z M 155.265625 169.84375 L 155.265625 172.84375 L 158.21875 172.84375 L 158.21875 169.84375 Z M 155.265625 172.84375 L 155.265625 175.84375 L 158.21875 175.84375 L 158.21875 172.84375 Z M 155.265625 175.84375 L 155.265625 178.847656 L 158.21875 178.847656 L 158.21875 175.84375 Z M 155.265625 178.847656 L 155.265625 181.847656 L 158.21875 181.847656 L 158.21875 178.847656 Z M 155.265625 181.847656 L 155.265625 184.847656 L 158.21875 184.847656 L 158.21875 181.847656 Z M 155.265625 184.847656 L 155.265625 187.847656 L 158.21875 187.847656 L 158.21875 184.847656 Z M 152.316406 169.84375 L 152.316406 172.84375 L 155.265625 172.84375 L 155.265625 169.84375 Z M 152.316406 172.84375 L 152.316406 175.84375 L 155.265625 175.84375 L 155.265625 172.84375 Z M 152.316406 175.84375 L 152.316406 178.847656 L 155.265625 178.847656 L 155.265625 175.84375 Z M 152.316406 178.847656 L 152.316406 181.847656 L 155.265625 181.847656 L 155.265625 178.847656 Z M 152.316406 181.847656 L 152.316406 184.847656 L 155.265625 184.847656 L 155.265625 181.847656 Z M 152.316406 184.847656 L 152.316406 187.847656 L 155.265625 187.847656 L 155.265625 184.847656 Z M 149.363281 169.84375 L 149.363281 172.84375 L 152.316406 172.84375 L 152.316406 169.84375 Z M 149.363281 172.84375 L 149.363281 175.84375 L 152.316406 175.84375 L 152.316406 172.84375 Z M 149.363281 175.84375 L 149.363281 178.847656 L 152.316406 178.847656 L 152.316406 175.84375 Z M 149.363281 178.847656 L 149.363281 181.847656 L 152.316406 181.847656 L 152.316406 178.847656 Z M 149.363281 181.847656 L 149.363281 184.847656 L 152.316406 184.847656 L 152.316406 181.847656 Z M 149.363281 184.847656 L 149.363281 187.847656 L 152.316406 187.847656 L 152.316406 184.847656 Z M 146.414062 169.84375 L 146.414062 172.84375 L 149.363281 172.84375 L 149.363281 169.84375 Z M 146.414062 172.84375 L 146.414062 175.84375 L 149.363281 175.84375 L 149.363281 172.84375 Z M 146.414062 175.84375 L 146.414062 178.847656 L 149.363281 178.847656 L 149.363281 175.84375 Z M 146.414062 178.847656 L 146.414062 181.847656 L 149.363281 181.847656 L 149.363281 178.847656 Z M 146.414062 181.847656 L 146.414062 184.847656 L 149.363281 184.847656 L 149.363281 181.847656 Z M 146.414062 184.847656 L 146.414062 187.847656 L 149.363281 187.847656 L 149.363281 184.847656 Z M 143.460938 169.84375 L 143.460938 172.84375 L 146.414062 172.84375 L 146.414062 169.84375 Z M 143.460938 172.84375 L 143.460938 175.84375 L 146.414062 175.84375 L 146.414062 172.84375 Z M 143.460938 175.84375 L 143.460938 178.847656 L 146.414062 178.847656 L 146.414062 175.84375 Z M 143.460938 178.847656 L 143.460938 181.847656 L 146.414062 181.847656 L 146.414062 178.847656 Z M 143.460938 181.847656 L 143.460938 184.847656 L 146.414062 184.847656 L 146.414062 181.847656 Z M 140.511719 169.84375 L 140.511719 172.84375 L 143.460938 172.84375 L 143.460938 169.84375 Z M 140.511719 172.84375 L 140.511719 175.84375 L 143.460938 175.84375 L 143.460938 172.84375 Z M 140.511719 175.84375 L 140.511719 178.847656 L 143.460938 178.847656 L 143.460938 175.84375 Z M 140.511719 178.847656 L 140.511719 181.847656 L 143.460938 181.847656 L 143.460938 178.847656 Z M 137.5625 169.84375 L 137.5625 172.84375 L 140.511719 172.84375 L 140.511719 169.84375 Z M 137.5625 172.84375 L 137.5625 175.84375 L 140.511719 175.84375 L 140.511719 172.84375 Z M 140.511719 175.84375 L 140.511719 178.847656 L 137.5625 178.847656 L 137.5625 175.84375 L 140.511719 175.84375 " fill-opacity="1" fill-rule="nonzero"/></g></svg>